<svg version="1.1" id="Layer_1" xmlns="http://www.w3.org/2000/svg" xmlns:xlink="http://www.w3.org/1999/xlink" x="0px" y="0px"
	 width="100%" viewBox="0 0 943 1036" enable-background="new 0 0 943 1036" xml:space="preserve">
<path fill="#000000" opacity="1.000000" stroke="none" 
	d="
M638.000000,1037.000000 
	C425.360107,1037.000000 213.220230,1037.000000 1.040177,1037.000000 
	C1.040177,691.737061 1.040177,346.474091 1.040177,1.105571 
	C315.223236,1.105571 629.446533,1.105571 943.834900,1.105571 
	C943.834900,346.333282 943.834900,691.666626 943.834900,1037.000000 
	C842.140686,1037.000000 740.320374,1037.000000 638.000000,1037.000000 
M407.567169,751.132812 
	C388.425812,740.207886 374.818207,724.223572 365.038147,704.712341 
	C362.460022,699.568909 359.719696,694.506836 357.082550,689.462280 
	C342.966125,695.905701 340.045776,703.928406 346.470032,716.898560 
	C377.988708,780.533081 454.409485,806.676575 518.462585,775.737061 
	C570.095642,750.796814 598.441895,694.619873 587.216492,638.933655 
	C581.766907,611.899719 567.771423,589.637817 547.903870,570.820190 
	C541.288574,564.554504 534.859497,558.092224 527.905457,551.289490 
	C563.172180,527.639893 584.700928,495.996307 588.138489,454.033691 
	C591.606384,411.701752 574.565796,377.221436 544.067444,349.189697 
	C549.852478,342.774902 555.482971,337.076111 560.463623,330.856934 
	C565.552917,324.502167 570.151794,317.734375 574.655945,310.942230 
	C576.245911,308.544586 577.425720,305.629150 577.920837,302.797668 
	C579.362305,294.553741 571.619202,292.157410 567.998657,286.719391 
	C566.905884,287.902008 566.317017,288.476746 565.798767,289.109436 
	C555.983215,301.092682 546.550232,313.413788 536.296082,325.008698 
	C507.042511,358.087097 462.548401,368.900848 422.131073,353.216125 
	C365.762054,331.341003 339.778107,265.894745 365.178802,209.769318 
	C393.357849,147.504883 473.354584,129.051147 525.189514,173.500015 
	C536.574951,183.263092 545.596191,195.802994 555.568359,207.184906 
	C559.785706,211.998489 563.646912,217.124100 567.866333,222.350998 
	C569.866028,220.217850 571.324829,218.637589 572.809509,217.082077 
	C579.585632,209.983047 579.967651,206.533478 574.901306,198.296341 
	C566.210938,184.167206 556.117615,171.147278 543.591309,160.220749 
	C509.729828,130.683792 470.954590,118.547783 426.847290,130.295868 
	C339.293335,153.616089 303.501373,258.383057 357.882660,331.027374 
	C362.820312,337.623291 368.571472,343.610229 374.077881,350.035187 
	C371.424652,352.858398 368.788177,355.612579 366.207153,358.417786 
	C317.112549,411.775513 322.180756,493.342285 378.016205,539.372070 
	C414.747437,569.652771 456.406250,577.063416 501.774750,562.862793 
	C506.251923,561.461365 509.087982,561.970093 512.209045,565.258057 
	C516.215393,569.478638 520.634583,573.311951 524.932068,577.250854 
	C538.158875,589.374268 550.084167,602.549744 558.022705,618.850525 
	C582.646851,669.413025 558.753296,733.576233 506.274323,756.638489 
	C472.927063,771.293152 440.087280,768.376953 407.567169,751.132812 
M429.736237,875.984131 
	C430.960266,878.715149 431.990021,881.557983 433.474365,884.139282 
	C434.524475,885.965454 436.189911,887.437744 437.580627,889.067932 
	C438.991394,887.520813 440.899750,886.202454 441.733246,884.389832 
	C447.639221,871.546143 453.314911,858.596741 459.094330,845.694580 
	C459.765747,844.195679 460.622894,842.779968 461.393951,841.325684 
	C461.869049,841.476990 462.344116,841.628235 462.819214,841.779541 
	C462.819214,857.505310 462.819214,873.231018 462.819214,888.851562 
	C465.564178,888.851562 467.691956,888.851562 469.866577,888.851562 
	C469.866577,867.692078 469.866577,846.762268 469.866577,825.871582 
	C460.979584,824.599487 460.989807,824.604126 457.656830,831.964966 
	C451.178345,846.272461 444.687195,860.574280 437.786407,875.793518 
	C436.647034,873.424500 435.855408,871.889221 435.158539,870.312012 
	C429.516113,857.542114 423.921326,844.751160 418.250000,831.994202 
	C414.927673,824.521057 413.725708,824.014954 405.374176,826.127625 
	C405.374176,846.993713 405.374176,867.878540 405.374176,888.848145 
	C407.850952,888.848145 409.958557,888.848145 412.860077,888.848145 
	C412.860077,872.746948 412.860077,856.864258 412.860077,840.289917 
	C413.897736,841.202271 414.233002,841.360901 414.348267,841.618042 
	C419.378815,852.841187 424.389984,864.073120 429.736237,875.984131 
M387.313507,836.158691 
	C379.385864,825.297791 368.498474,822.614319 355.947205,825.125610 
	C344.378448,827.440369 336.839874,834.710266 334.340729,845.995728 
	C332.871368,852.630920 332.550049,859.914307 333.579559,866.619446 
	C335.253693,877.522888 341.709747,885.711914 352.659332,888.769104 
	C364.127808,891.971191 375.146545,890.835693 384.099304,881.798096 
	C394.620087,871.177917 396.191803,851.031067 387.313507,836.158691 
M579.744019,885.877075 
	C582.256958,891.129150 586.499756,888.630493 591.343262,888.873230 
	C584.484985,878.407349 578.244263,868.883911 571.907715,859.214172 
	C572.211060,859.064697 573.057556,858.671936 573.882141,858.237610 
	C581.245972,854.359070 584.928284,847.388367 583.655884,839.753357 
	C582.326111,831.774719 577.729675,826.788330 568.934509,825.885864 
	C561.239868,825.096313 553.400085,825.721130 545.367188,825.721130 
	C545.367188,846.849304 545.367188,867.827393 545.367188,888.811646 
	C548.085144,888.811646 550.358765,888.811646 552.956543,888.811646 
	C552.956543,879.910767 552.956543,871.283630 552.956543,862.706055 
	C560.682678,860.897339 566.266052,863.400635 570.146790,869.860779 
	C573.226624,874.987610 576.282166,880.129150 579.744019,885.877075 
M520.056152,847.112549 
	C517.722412,841.067139 515.266235,835.064941 513.110046,828.956848 
	C512.128906,826.177551 510.646179,825.212524 507.677429,825.258118 
	C504.776031,825.302612 503.200836,826.048950 502.139038,828.932190 
	C497.544983,841.406921 492.711548,853.793701 487.953217,866.207886 
	C485.122375,873.593323 482.269318,880.970215 479.383301,888.462341 
	C487.584656,889.808533 487.584656,889.808533 490.031738,883.177979 
	C494.348785,871.480652 494.348785,871.480652 508.200653,871.479919 
	C520.886536,871.479248 520.886536,871.479248 525.146301,883.042358 
	C527.690369,889.948242 528.085266,890.148743 535.905701,888.275757 
	C530.705261,874.770569 525.519104,861.302612 520.056152,847.112549 
z"/>
<path fill="#F8F8F8" opacity="1.000000" stroke="none" 
	d="
M407.866089,751.348694 
	C440.087280,768.376953 472.927063,771.293152 506.274323,756.638489 
	C558.753296,733.576233 582.646851,669.413025 558.022705,618.850525 
	C550.084167,602.549744 538.158875,589.374268 524.932068,577.250854 
	C520.634583,573.311951 516.215393,569.478638 512.209045,565.258057 
	C509.087982,561.970093 506.251923,561.461365 501.774750,562.862793 
	C456.406250,577.063416 414.747437,569.652771 378.016205,539.372070 
	C322.180756,493.342285 317.112549,411.775513 366.207153,358.417786 
	C368.788177,355.612579 371.424652,352.858398 374.077881,350.035187 
	C368.571472,343.610229 362.820312,337.623291 357.882660,331.027374 
	C303.501373,258.383057 339.293335,153.616089 426.847290,130.295868 
	C470.954590,118.547783 509.729828,130.683792 543.591309,160.220749 
	C556.117615,171.147278 566.210938,184.167206 574.901306,198.296341 
	C579.967651,206.533478 579.585632,209.983047 572.809509,217.082077 
	C571.324829,218.637589 569.866028,220.217850 567.866333,222.350998 
	C563.646912,217.124100 559.785706,211.998489 555.568359,207.184906 
	C545.596191,195.802994 536.574951,183.263092 525.189514,173.500015 
	C473.354584,129.051147 393.357849,147.504883 365.178802,209.769318 
	C339.778107,265.894745 365.762054,331.341003 422.131073,353.216125 
	C462.548401,368.900848 507.042511,358.087097 536.296082,325.008698 
	C546.550232,313.413788 555.983215,301.092682 565.798767,289.109436 
	C566.317017,288.476746 566.905884,287.902008 567.998657,286.719391 
	C571.619202,292.157410 579.362305,294.553741 577.920837,302.797668 
	C577.425720,305.629150 576.245911,308.544586 574.655945,310.942230 
	C570.151794,317.734375 565.552917,324.502167 560.463623,330.856934 
	C555.482971,337.076111 549.852478,342.774902 544.067444,349.189697 
	C574.565796,377.221436 591.606384,411.701752 588.138489,454.033691 
	C584.700928,495.996307 563.172180,527.639893 527.905457,551.289490 
	C534.859497,558.092224 541.288574,564.554504 547.903870,570.820190 
	C567.771423,589.637817 581.766907,611.899719 587.216492,638.933655 
	C598.441895,694.619873 570.095642,750.796814 518.462585,775.737061 
	C454.409485,806.676575 377.988708,780.533081 346.470032,716.898560 
	C340.045776,703.928406 342.966125,695.905701 357.082550,689.462280 
	C359.719696,694.506836 362.460022,699.568909 365.038147,704.712341 
	C374.818207,724.223572 388.425812,740.207886 407.866089,751.348694 
M556.556091,486.828766 
	C564.568115,468.832367 568.302612,450.068573 566.009583,430.397919 
	C562.948486,404.139343 549.329529,383.456268 531.143433,365.188293 
	C528.236755,362.268494 526.192932,362.085907 522.694641,364.244415 
	C503.279297,376.224243 482.076263,382.515228 459.239136,382.578949 
	C436.968323,382.641052 416.129944,376.927246 396.814117,365.783234 
	C394.509583,364.453644 392.617554,363.013824 389.823334,365.650391 
	C361.357788,392.510223 348.925171,425.112915 357.158905,463.665680 
	C367.198181,510.672516 403.114746,541.260620 451.705200,546.349976 
	C495.386139,550.925049 537.463379,527.226746 556.556091,486.828766 
z"/>
<path fill="#EFEFEF" opacity="1.000000" stroke="none" 
	d="
M429.569824,875.644043 
	C424.389984,864.073120 419.378815,852.841187 414.348267,841.618042 
	C414.233002,841.360901 413.897736,841.202271 412.860077,840.289917 
	C412.860077,856.864258 412.860077,872.746948 412.860077,888.848145 
	C409.958557,888.848145 407.850952,888.848145 405.374176,888.848145 
	C405.374176,867.878540 405.374176,846.993713 405.374176,826.127625 
	C413.725708,824.014954 414.927673,824.521057 418.250000,831.994202 
	C423.921326,844.751160 429.516113,857.542114 435.158539,870.312012 
	C435.855408,871.889221 436.647034,873.424500 437.786407,875.793518 
	C444.687195,860.574280 451.178345,846.272461 457.656830,831.964966 
	C460.989807,824.604126 460.979584,824.599487 469.866577,825.871582 
	C469.866577,846.762268 469.866577,867.692078 469.866577,888.851562 
	C467.691956,888.851562 465.564178,888.851562 462.819214,888.851562 
	C462.819214,873.231018 462.819214,857.505310 462.819214,841.779541 
	C462.344116,841.628235 461.869049,841.476990 461.393951,841.325684 
	C460.622894,842.779968 459.765747,844.195679 459.094330,845.694580 
	C453.314911,858.596741 447.639221,871.546143 441.733246,884.389832 
	C440.899750,886.202454 438.991394,887.520813 437.580627,889.067993 
	C436.189911,887.437744 434.524475,885.965454 433.474365,884.139282 
	C431.990021,881.557983 430.960266,878.715149 429.569824,875.644043 
z"/>
<path fill="#EFEFEF" opacity="1.000000" stroke="none" 
	d="
M387.510986,836.460327 
	C396.191803,851.031067 394.620087,871.177917 384.099304,881.798096 
	C375.146545,890.835693 364.127808,891.971191 352.659332,888.769104 
	C341.709747,885.711914 335.253693,877.522888 333.579559,866.619446 
	C332.550049,859.914307 332.871368,852.630920 334.340729,845.995728 
	C336.839874,834.710266 344.378448,827.440369 355.947205,825.125610 
	C368.498474,822.614319 379.385864,825.297791 387.510986,836.460327 
M384.935455,856.555054 
	C384.649719,854.249084 384.493347,851.918213 384.056244,849.641296 
	C381.936646,838.599976 374.847351,832.016296 364.605377,831.470703 
	C354.082489,830.910095 345.603851,836.756042 342.313202,847.078918 
	C339.852325,854.798767 340.019318,862.604858 343.183777,870.045776 
	C346.312622,877.402893 351.776001,882.222656 360.117493,882.935486 
	C369.134064,883.705994 376.990875,881.227722 381.099945,872.718262 
	C383.334808,868.090088 383.718994,862.568237 384.935455,856.555054 
z"/>
<path fill="#EDEDED" opacity="1.000000" stroke="none" 
	d="
M579.546265,885.570618 
	C576.282166,880.129150 573.226624,874.987610 570.146790,869.860779 
	C566.266052,863.400635 560.682678,860.897339 552.956543,862.706055 
	C552.956543,871.283630 552.956543,879.910767 552.956543,888.811646 
	C550.358765,888.811646 548.085144,888.811646 545.367188,888.811646 
	C545.367188,867.827393 545.367188,846.849304 545.367188,825.721130 
	C553.400085,825.721130 561.239868,825.096313 568.934509,825.885864 
	C577.729675,826.788330 582.326111,831.774719 583.655884,839.753357 
	C584.928284,847.388367 581.245972,854.359070 573.882141,858.237610 
	C573.057556,858.671936 572.211060,859.064697 571.907715,859.214172 
	C578.244263,868.883911 584.484985,878.407349 591.343262,888.873230 
	C586.499756,888.630493 582.256958,891.129150 579.546265,885.570618 
M560.393555,832.432983 
	C557.977600,832.432983 555.561646,832.432983 553.126343,832.432983 
	C553.126343,840.326294 553.126343,847.563416 553.126343,855.110352 
	C556.827271,855.110352 560.293762,855.289612 563.735229,855.072632 
	C570.685364,854.634460 575.497925,849.776672 575.599854,843.369080 
	C575.697021,837.261353 571.609253,833.299255 564.342957,832.503418 
	C563.355652,832.395264 562.350281,832.452515 560.393555,832.432983 
z"/>
<path fill="#EFEFEF" opacity="1.000000" stroke="none" 
	d="
M520.194580,847.473572 
	C525.519104,861.302612 530.705261,874.770569 535.905701,888.275757 
	C528.085266,890.148743 527.690369,889.948242 525.146301,883.042358 
	C520.886536,871.479248 520.886536,871.479248 508.200653,871.479919 
	C494.348785,871.480652 494.348785,871.480652 490.031738,883.177979 
	C487.584656,889.808533 487.584656,889.808533 479.383301,888.462341 
	C482.269318,880.970215 485.122375,873.593323 487.953217,866.207886 
	C492.711548,853.793701 497.544983,841.406921 502.139038,828.932190 
	C503.200836,826.048950 504.776031,825.302612 507.677429,825.258118 
	C510.646179,825.212524 512.128906,826.177551 513.110046,828.956848 
	C515.266235,835.064941 517.722412,841.067139 520.194580,847.473572 
M505.698212,840.111938 
	C502.796326,848.064392 499.894440,856.016907 496.820984,864.439575 
	C504.412903,864.439575 510.973450,864.439575 518.263184,864.439575 
	C514.735168,854.897583 511.356049,845.758423 507.636261,835.697876 
	C506.747528,837.619873 506.344635,838.491150 505.698212,840.111938 
z"/>
<path fill="#020202" opacity="1.000000" stroke="none" 
	d="
M556.378113,487.163086 
	C537.463379,527.226746 495.386139,550.925049 451.705200,546.349976 
	C403.114746,541.260620 367.198181,510.672516 357.158905,463.665680 
	C348.925171,425.112915 361.357788,392.510223 389.823334,365.650391 
	C392.617554,363.013824 394.509583,364.453644 396.814117,365.783234 
	C416.129944,376.927246 436.968323,382.641052 459.239136,382.578949 
	C482.076263,382.515228 503.279297,376.224243 522.694641,364.244415 
	C526.192932,362.085907 528.236755,362.268494 531.143433,365.188293 
	C549.329529,383.456268 562.948486,404.139343 566.009583,430.397919 
	C568.302612,450.068573 564.568115,468.832367 556.378113,487.163086 
z"/>
<path fill="#050505" opacity="1.000000" stroke="none" 
	d="
M384.936676,857.002258 
	C383.718994,862.568237 383.334808,868.090088 381.099945,872.718262 
	C376.990875,881.227722 369.134064,883.705994 360.117493,882.935486 
	C351.776001,882.222656 346.312622,877.402893 343.183777,870.045776 
	C340.019318,862.604858 339.852325,854.798767 342.313202,847.078918 
	C345.603851,836.756042 354.082489,830.910095 364.605377,831.470703 
	C374.847351,832.016296 381.936646,838.599976 384.056244,849.641296 
	C384.493347,851.918213 384.649719,854.249084 384.936676,857.002258 
z"/>
<path fill="#070707" opacity="1.000000" stroke="none" 
	d="
M560.873413,832.433105 
	C562.350281,832.452515 563.355652,832.395264 564.342957,832.503418 
	C571.609253,833.299255 575.697021,837.261353 575.599854,843.369080 
	C575.497925,849.776672 570.685364,854.634460 563.735229,855.072632 
	C560.293762,855.289612 556.827271,855.110352 553.126343,855.110352 
	C553.126343,847.563416 553.126343,840.326294 553.126343,832.432983 
	C555.561646,832.432983 557.977600,832.432983 560.873413,832.433105 
z"/>
<path fill="#131313" opacity="1.000000" stroke="none" 
	d="
M505.819977,839.737183 
	C506.344635,838.491150 506.747528,837.619873 507.636261,835.697876 
	C511.356049,845.758423 514.735168,854.897583 518.263184,864.439575 
	C510.973450,864.439575 504.412903,864.439575 496.820984,864.439575 
	C499.894440,856.016907 502.796326,848.064392 505.819977,839.737183 
z"/>
</svg>